# xmcd
#
# Track frame offsets: 
#        150
#        31370
#        69883
#        88978
#        102904
#        120081
#        138398
#        177284
#        219340
#        286591
#
# Disc length: 4185 seconds
#
# Revision: 0
# Processed by: cddbd v1.5.2PL0 Copyright (c) Steve Scherf et al.
# Submitted via: ExactAudioCopy v0.99pb5
#
DISCID=8010570a
DTITLE=Gwilym Simcock - Blues Vignette - Solo Duo
DYEAR=2009
DGENRE=Jazz
TTITLE0=Little People
TTITLE1=Exploration on Mvt II of Grieg Piano Concerto
TTITLE2=On Broadway
TTITLE3=Improvisation I - Statues
TTITLE4=Improvisation II - Letter To The Editor
TTITLE5=Improvisation III - Be Still Now
TTITLE6=Caldera
TTITLE7=Jaco and Joe
TTITLE8=Suite for Cello and Piano: Part 1 - Kinship
TTITLE9=Suite for Cello and Piano: Part 2 - Homeward
EXTD=
EXTT0=
EXTT1=
EXTT2=
EXTT3=
EXTT4=
EXTT5=
EXTT6=
EXTT7=
EXTT8=
EXTT9=
PLAYORDER=
